# xmcd CD database file
#
# Track frame offsets:
#	150
#	17805
#	33816
#	58886
#	74772
#	98818
#	115954
#	139018
#	155255
#	171270
#	185919
#	209133
#	218934
#	235119
#	255135
#	268548
#
# Disc length: 3744 seconds
#
# Revision: 0
# Processed by: cddbd v1.5.1PL0 Copyright (c) Steve Scherf et al.
# Submitted via: CDex 1.50
#
DISCID=ee0e9e10
DTITLE=Johnny Winter - White Hot Blues
DYEAR=1900
DGENRE=Blues
TTITLE0=Rock Me Baby
TTITLE1=Divin' Duck Blues
TTITLE2=Memory Pain
TTITLE3=Rollin' and Tumblin'
TTITLE4=Be Careful With a Fool
TTITLE5=I Love Everybody
TTITLE6=New York, New York
TTITLE7=Walking by Myself
TTITLE8=Leland Mississippi Blues
TTITLE9=TV Mama
TTITLE10=Highway 61 Revisited
TTITLE11=Crawl
TTITLE12=Hustled Down in Texas
TTITLE13=Too Much Seconal
TTITLE14=Messin' With the Kid
TTITLE15=Johnny B. Goode [Live]
EXTD=
EXTT0=
EXTT1=
EXTT2=
EXTT3=
EXTT4=
EXTT5=
EXTT6=
EXTT7=
EXTT8=
EXTT9=
EXTT10=
EXTT11=
EXTT12=
EXTT13=
EXTT14=
EXTT15=
PLAYORDER=
